<svg xmlns="http://www.w3.org/2000/svg" viewBox="0 0 100 120"><path d="M17 5H31Q36 5 36 11V19H52L59 26V60H89Q95 60 95 66V110Q95 116 89 116H45L36 106H14Q8 106 8 100V66H16V58H8V12Q8 5 17 5Z" fill="#BFC3C7"/><g fill="#101010"><rect x="17" y="77" width="27" height="24" rx="3"/><rect x="63" y="70" width="22" height="19" rx="2"/><rect x="35" y="28" width="15" height="20" rx="2"/><rect x="64" y="96" width="19" height="13" rx="2"/></g><g fill="none" stroke-linejoin="round" stroke-linecap="round" stroke-width="3"><path d="M20 25V46L28 54V68L53 93V104" stroke="#268CFF"/><path d="M30 26V46L37 54V63L55 81H60M50 103H57V88L48 79V72L37 62" stroke="#101010"/><path d="M89 91V105M13 70H23" stroke="#26C985"/></g><g fill="#26C985"><circle cx="20" cy="25" r="4"/><circle cx="53" cy="104" r="4"/><circle cx="89" cy="91" r="3"/><circle cx="13" cy="70" r="3"/></g><g stroke="#101010" stroke-width="2"><path d="M22 73V77M29 73V77M36 73V77M44 82H49M44 89H49M44 96H49M68 66V70M75 66V70M82 66V70M59 76H63M59 83H63"/></g><g stroke="#101010" stroke-width="2.5" fill="none"><circle cx="20" cy="14" r="4"/><circle cx="87" cy="65" r="3"/></g></svg>